<?xml version="1.0" encoding="UTF-8"?>
<svg version="1.1" xmlns="http://www.w3.org/2000/svg" width="500" height="500">
<path d="M0 0 C165 0 330 0 500 0 C500 165 500 330 500 500 C335 500 170 500 0 500 C0 335 0 170 0 0 Z " fill="#000000" transform="translate(0,0)"/>
<path d="M0 0 C0.99 0.99 0.99 0.99 2 2 C1.65277771 6.99654062 -0.81294713 11.71711035 -2.7265625 16.28515625 C-3.10608566 17.2012114 -3.48560883 18.11726654 -3.87663269 19.06108093 C-5.12175653 22.06337354 -6.3733387 25.06292769 -7.625 28.0625 C-8.49347664 30.1531567 -9.3615556 32.24397865 -10.22924805 34.33496094 C-12.81367507 40.55907245 -15.40630933 46.77974449 -18 53 C-18.71411504 54.7139945 -19.42815045 56.42802218 -20.14208984 58.14208984 C-22.63779137 64.13356718 -25.13399636 70.12483209 -27.6340332 76.11450195 C-32.48048485 87.72932334 -37.27697067 99.36434867 -42.0612793 111.00488281 C-45.94643072 120.45550933 -49.85825878 129.89459838 -53.8059082 139.31933594 C-54.17159912 140.19364258 -54.53729004 141.06794922 -54.9140625 141.96875 C-55.2229541 142.70544922 -55.5318457 143.44214844 -55.85009766 144.20117188 C-56.87475022 146.69514575 -57.88027804 149.19547262 -58.88012695 151.69946289 C-62.00387488 159.52221218 -65.19501733 167.31698269 -68.40014648 175.10668945 C-69.17971156 177.00525216 -69.95637185 178.90501001 -70.73022461 180.8059082 C-71.85601161 183.57019573 -72.99141568 186.33035518 -74.12890625 189.08984375 C-74.47272842 189.9398143 -74.8165506 190.78978485 -75.17079163 191.66551208 C-75.49800705 192.45385941 -75.82522247 193.24220673 -76.16235352 194.05444336 C-76.44563004 194.74598007 -76.72890656 195.43751678 -77.02076721 196.15000916 C-78.1045424 198.1975041 -79.21703695 199.52546693 -81 201 C-83.04321289 200.96386719 -83.04321289 200.96386719 -85 200 C-86.23608398 198.13769531 -86.23608398 198.13769531 -87.30859375 195.578125 C-87.73124512 194.57716797 -88.15389648 193.57621094 -88.58935547 192.54492188 C-91.13937711 186.1367678 -93.64850578 179.71581217 -96.10061646 173.26950073 C-97.08065705 170.70244049 -98.07205844 168.14001347 -99.06616211 165.57836914 C-101.96650159 158.08406798 -104.84147942 150.59563699 -107.40748596 142.97915649 C-108.37197606 140.12285379 -109.37243582 137.27976604 -110.3757019 134.43688965 C-110.82714279 133.12266611 -111.25986299 131.80183481 -111.67190552 130.47473145 C-113.42377275 124.84209763 -114.93784942 120.35860917 -119.99121094 117.02929688 C-123.61272336 115.44153521 -127.23085936 114.19241551 -131 113 C-133.34038079 112.10792515 -135.67642206 111.20437578 -138.0078125 110.2890625 C-140.37923386 109.39844265 -142.75165323 108.51047621 -145.125 107.625 C-154.52746339 104.0948513 -163.89437066 100.49335074 -173.20166016 96.71850586 C-176.99497099 95.18464023 -180.79507768 93.69031167 -184.63671875 92.28125 C-185.37365967 92.01094971 -186.11060059 91.74064941 -186.86987305 91.4621582 C-188.23754241 90.96478114 -189.60734765 90.4732169 -190.97973633 89.98901367 C-194.42428566 88.73957877 -197.20430777 87.38332763 -200 85 C-199.77124023 82.64477539 -199.77124023 82.64477539 -199 80 C-197.11743164 78.66967773 -197.11743164 78.66967773 -194.66015625 77.68359375 C-193.76103516 77.31169922 -192.86191406 76.93980469 -191.93554688 76.55664062 C-190.98744141 76.18732422 -190.03933594 75.81800781 -189.0625 75.4375 C-188.14919922 75.06431641 -187.23589844 74.69113281 -186.29492188 74.30664062 C-183.53745521 73.18452928 -180.7707111 72.08894752 -178 71 C-169.98849555 67.83329889 -162.03755356 64.52714914 -154.09057617 61.20278931 C-140.90897362 55.68967692 -127.7065345 50.23060584 -114.48010254 44.82595825 C-101.33959165 39.45627737 -88.24817811 34.00088223 -75.21850586 28.36645508 C-65.22162731 24.05892822 -55.15001896 19.94876499 -45.05200195 15.88549805 C-38.23226984 13.13910139 -31.43398143 10.35307671 -24.66796875 7.4765625 C-23.32355493 6.90804088 -21.97907366 6.33967871 -20.63452148 5.77148438 C-18.7080358 4.95722905 -16.78351527 4.13950399 -14.86404419 3.30883789 C-13.11673455 2.55277166 -11.3631835 1.8111788 -9.609375 1.0703125 C-8.61905273 0.64508301 -7.62873047 0.21985352 -6.60839844 -0.21826172 C-3.83030649 -1.05085723 -2.64077065 -1.1227272 0 0 Z " fill="#010101" transform="translate(349,150)"/>
<path d="M0 0 C0.99 0.99 0.99 0.99 2 2 C1.65277771 6.99654062 -0.81294713 11.71711035 -2.7265625 16.28515625 C-3.10608566 17.2012114 -3.48560883 18.11726654 -3.87663269 19.06108093 C-5.12175653 22.06337354 -6.3733387 25.06292769 -7.625 28.0625 C-8.49347664 30.1531567 -9.3615556 32.24397865 -10.22924805 34.33496094 C-12.81367507 40.55907245 -15.40630933 46.77974449 -18 53 C-18.71411504 54.7139945 -19.42815045 56.42802218 -20.14208984 58.14208984 C-22.63779137 64.13356718 -25.13399636 70.12483209 -27.6340332 76.11450195 C-32.48048485 87.72932334 -37.27697067 99.36434867 -42.0612793 111.00488281 C-45.94643072 120.45550933 -49.85825878 129.89459838 -53.8059082 139.31933594 C-54.17159912 140.19364258 -54.53729004 141.06794922 -54.9140625 141.96875 C-55.2229541 142.70544922 -55.5318457 143.44214844 -55.85009766 144.20117188 C-56.87475022 146.69514575 -57.88027804 149.19547262 -58.88012695 151.69946289 C-62.00387488 159.52221218 -65.19501733 167.31698269 -68.40014648 175.10668945 C-69.17971156 177.00525216 -69.95637185 178.90501001 -70.73022461 180.8059082 C-71.85601161 183.57019573 -72.99141568 186.33035518 -74.12890625 189.08984375 C-74.47272842 189.9398143 -74.8165506 190.78978485 -75.17079163 191.66551208 C-75.49800705 192.45385941 -75.82522247 193.24220673 -76.16235352 194.05444336 C-76.44563004 194.74598007 -76.72890656 195.43751678 -77.02076721 196.15000916 C-78.1045424 198.1975041 -79.21703695 199.52546693 -81 201 C-83.04321289 200.96386719 -83.04321289 200.96386719 -85 200 C-86.23608398 198.13769531 -86.23608398 198.13769531 -87.30859375 195.578125 C-87.73124512 194.57716797 -88.15389648 193.57621094 -88.58935547 192.54492188 C-91.13937711 186.1367678 -93.64850578 179.71581217 -96.10061646 173.26950073 C-97.08065705 170.70244049 -98.07205844 168.14001347 -99.06616211 165.57836914 C-101.96650159 158.08406798 -104.84147942 150.59563699 -107.40748596 142.97915649 C-108.37197606 140.12285379 -109.37243582 137.27976604 -110.3757019 134.43688965 C-110.82714279 133.12266611 -111.25986299 131.80183481 -111.67190552 130.47473145 C-113.42377275 124.84209763 -114.93784942 120.35860917 -119.99121094 117.02929688 C-123.61272336 115.44153521 -127.23085936 114.19241551 -131 113 C-133.34038079 112.10792515 -135.67642206 111.20437578 -138.0078125 110.2890625 C-140.37923386 109.39844265 -142.75165323 108.51047621 -145.125 107.625 C-154.52746339 104.0948513 -163.89437066 100.49335074 -173.20166016 96.71850586 C-176.99497099 95.18464023 -180.79507768 93.69031167 -184.63671875 92.28125 C-185.37365967 92.01094971 -186.11060059 91.74064941 -186.86987305 91.4621582 C-188.23754241 90.96478114 -189.60734765 90.4732169 -190.97973633 89.98901367 C-194.42428566 88.73957877 -197.20430777 87.38332763 -200 85 C-199.77124023 82.64477539 -199.77124023 82.64477539 -199 80 C-197.11743164 78.66967773 -197.11743164 78.66967773 -194.66015625 77.68359375 C-193.76103516 77.31169922 -192.86191406 76.93980469 -191.93554688 76.55664062 C-190.98744141 76.18732422 -190.03933594 75.81800781 -189.0625 75.4375 C-188.14919922 75.06431641 -187.23589844 74.69113281 -186.29492188 74.30664062 C-183.53745521 73.18452928 -180.7707111 72.08894752 -178 71 C-169.98849555 67.83329889 -162.03755356 64.52714914 -154.09057617 61.20278931 C-140.90897362 55.68967692 -127.7065345 50.23060584 -114.48010254 44.82595825 C-101.33959165 39.45627737 -88.24817811 34.00088223 -75.21850586 28.36645508 C-65.22162731 24.05892822 -55.15001896 19.94876499 -45.05200195 15.88549805 C-38.23226984 13.13910139 -31.43398143 10.35307671 -24.66796875 7.4765625 C-23.32355493 6.90804088 -21.97907366 6.33967871 -20.63452148 5.77148438 C-18.7080358 4.95722905 -16.78351527 4.13950399 -14.86404419 3.30883789 C-13.11673455 2.55277166 -11.3631835 1.8111788 -9.609375 1.0703125 C-8.61905273 0.64508301 -7.62873047 0.21985352 -6.60839844 -0.21826172 C-3.83030649 -1.05085723 -2.64077065 -1.1227272 0 0 Z M-21.8203125 15.12109375 C-22.6147728 15.45226196 -23.40923309 15.78343018 -24.22776794 16.12463379 C-26.86224033 17.22405965 -29.49356427 18.33082805 -32.125 19.4375 C-33.96713462 20.20766759 -35.8095047 20.97727219 -37.65209961 21.74633789 C-41.49830497 23.35216582 -45.34347021 24.96044949 -49.18798828 26.5703125 C-57.43243238 30.02005797 -65.69052393 33.43681377 -73.94805908 36.85507202 C-84.47109695 41.21180869 -94.99189012 45.57359296 -105.49731445 49.97265625 C-115.61690446 54.20897242 -125.77432478 58.34594872 -135.94580078 62.45565796 C-148.06885451 67.35559524 -160.18648732 72.26740141 -172.25 77.3125 C-173.88267822 77.98720337 -173.88267822 77.98720337 -175.54833984 78.67553711 C-177.017146 79.29440796 -177.017146 79.29440796 -178.515625 79.92578125 C-179.36415039 80.28067627 -180.21267578 80.63557129 -181.08691406 81.0012207 C-183.16950844 81.85076335 -183.16950844 81.85076335 -184 84 C-171.06133575 89.41246104 -158.09566455 94.72385743 -144.75 99.0625 C-139.79186794 100.68406944 -135.01395913 102.58120204 -130.23046875 104.66015625 C-127.84150679 105.65098328 -125.49302548 106.53699877 -123.05078125 107.37109375 C-122.37829346 107.61102051 -121.70580566 107.85094727 -121.01293945 108.09814453 C-119.09831142 108.77761107 -117.17433502 109.43056366 -115.25 110.08203125 C-110.83558789 112.68717109 -109.81725586 115.34081532 -108 120 C-107.63422852 120.88856689 -107.26845703 121.77713379 -106.89160156 122.69262695 C-105.60366642 125.86646713 -104.36113662 129.05563847 -103.125 132.25 C-102.66246826 133.43625977 -102.19993652 134.62251953 -101.72338867 135.84472656 C-100.70603359 138.45418991 -99.69119809 141.06461467 -98.67822266 143.67578125 C-96.84547288 148.39999657 -95.00671594 153.12186644 -93.16796875 157.84375 C-89.77427564 166.56080393 -86.38578546 175.27987197 -83 184 C-82.34 184 -81.68 184 -81 184 C-80.74943848 183.39865234 -80.49887695 182.79730469 -80.24072266 182.17773438 C-79.47893408 180.3494418 -78.71713269 178.52115456 -77.95532227 176.69287109 C-77.04946858 174.51875576 -76.14371064 172.34460054 -75.23803711 170.17041016 C-73.08660645 165.00594207 -70.93457388 159.84173613 -68.77734375 154.6796875 C-56.59344749 125.50978189 -44.56183344 96.27598223 -32.57382202 67.02511597 C-28.12762847 56.17680352 -23.6695242 45.33356239 -19.1875 34.5 C-18.701604 33.32493896 -18.21570801 32.14987793 -17.71508789 30.93920898 C-17.26641357 29.85583252 -16.81773926 28.77245605 -16.35546875 27.65625 C-15.94603027 26.66625 -15.5365918 25.67625 -15.11474609 24.65625 C-14.16430708 22.39151579 -13.17823356 20.14819342 -12.17578125 17.90625 C-10.81248009 15.05900962 -10.81248009 15.05900962 -11 12 C-15.02796486 12 -18.17125689 13.57688338 -21.8203125 15.12109375 Z " fill="#F5F5F5" transform="translate(349,150)"/>
</svg>
